# xmcd CD database file
#
# Track frame offsets:
#	150
#	12940
#	26471
#	40567
#	52803
#	66517
#	81298
#	93892
#	104078
#	113385
#	121490
#	132943
#
# Disc length: 1914 seconds
#
# Revision: 0
# Processed by: cddbd v1.5.2PL0 Copyright (c) Steve Scherf et al.
# Submitted via: CDex 1.70beta3
#
DISCID=9207780c
DTITLE=Rusty Bryant - America's Greatest Jazz 
DYEAR=1956
DGENRE=Jazz
TTITLE0=Castle Rock
TTITLE1=All Nite Long
TTITLE2=Pink Champagne
TTITLE3=Slow Drag
TTITLE4=House Rocker
TTITLE5=Blow Rusty Blow
TTITLE6=Back Street
TTITLE7=Honeydripper
TTITLE8=Hot Fudge
TTITLE9=Moonlight Garden Stomp
TTITLE10=Ridin' With Rusty
TTITLE11=Hanka Boo
EXTD=YEAR: 1956
EXTT0=
EXTT1=
EXTT2=
EXTT3=
EXTT4=
EXTT5=
EXTT6=
EXTT7=
EXTT8=
EXTT9=
EXTT10=
EXTT11=
PLAYORDER=
